<?xml version="1.0" encoding="UTF-8" standalone="no"?>
<!-- Created with Inkscape (http://www.inkscape.org/) -->

<svg
   width="210mm"
   height="297mm"
   viewBox="0 0 210 297"
   version="1.1"
   id="svg1"
   inkscape:version="1.3 (0e150ed6c4, 2023-07-21)"
   sodipodi:docname="Backpuck.svg"
   xmlns:inkscape="http://www.inkscape.org/namespaces/inkscape"
   xmlns:sodipodi="http://sodipodi.sourceforge.net/DTD/sodipodi-0.dtd"
   xmlns="http://www.w3.org/2000/svg"
   xmlns:svg="http://www.w3.org/2000/svg">
  <sodipodi:namedview
     id="namedview1"
     pagecolor="#ffffff"
     bordercolor="#000000"
     borderopacity="0.25"
     inkscape:showpageshadow="2"
     inkscape:pageopacity="0.0"
     inkscape:pagecheckerboard="0"
     inkscape:deskcolor="#d1d1d1"
     inkscape:document-units="mm"
     inkscape:zoom="0.066702617"
     inkscape:cx="284.8464"
     inkscape:cy="1491.6956"
     inkscape:window-width="1440"
     inkscape:window-height="837"
     inkscape:window-x="1016"
     inkscape:window-y="-8"
     inkscape:window-maximized="1"
     inkscape:current-layer="layer1" />
  <defs
     id="defs1" />
  <g
     inkscape:label="Camada 1"
     inkscape:groupmode="layer"
     id="layer1">
    <g
       id="g3-5-7-9-1"
       transform="matrix(3.8574722,0,0,3.6517479,-2362.5688,-813.23763)"
       style="fill:#2600f9;fill-opacity:1;stroke-width:0.999947;stroke-dasharray:none"
       inkscape:export-filename="Logo_macaco_azul.png"
       inkscape:export-xdpi="21.551399"
       inkscape:export-ydpi="21.551399">
      <path
         id="path2-8-4-3-5"
         style="opacity:1;fill:#2600f9;fill-opacity:1;stroke:#000000;stroke-width:0.999947;stroke-dasharray:none;stroke-opacity:0"
         d="m 549.68485,128.7523 c -3.83839,-0.15362 -8.66562,0.62373 -8.66562,0.62373 -25.74354,4.2694 -46.61679,48.49006 -46.61679,48.49006 -6.9577,9.79451 -24.00422,42.69404 -24.00422,42.69404 -7.30559,14.4406 -8.11734,32.52308 -8.11734,32.52308 0.92768,-5.0228 3.42098,-1.82108 3.42098,-1.82108 -3.6528,15.38242 1.72909,32.24454 1.72909,32.24454 0.43195,0.54891 4.8979,16.14372 4.8979,16.14372 0.81998,2.04221 -0.57413,13.31908 -0.57413,13.31908 0.24599,-0.62154 5.74022,-7.01455 5.74022,-7.01455 1.06598,-2.75253 2.41846,-0.84336 2.41846,-0.84336 6.47693,6.55304 10.04292,12.31701 12.06799,16.63619 -9.02312,4.48251 -18.47147,9.36866 -21.81055,11.09906 1.17726,-0.073 4.03696,1.25109 4.03696,1.25109 5.73572,2.43903 8.00778,7.34632 8.00778,7.34632 l -0.17776,-0.37207 c 4.26736,6.23703 -0.47371,11.39372 -0.54157,11.467 -0.0207,0.007 -0.0446,0.0163 -0.0651,0.0233 l 0.0538,-0.0103 c 0,0 0.0114,-0.0124 0.0119,-0.0129 5.33961,-1.83183 16.39733,-7.34426 23.93394,-11.22102 3.69015,7.13925 6.42132,13.56145 6.42132,13.56145 0.32795,-11.72044 2.72799,-11.76207 2.72799,-11.76207 12.75581,5.90177 25.33799,27.37455 25.33799,27.37455 0.17394,-5.02282 5.4498,-9.85728 5.4498,-9.85728 5.97201,5.21117 6.87245,9.51002 6.87245,9.51002 0,0 2.37626,-4.24044 8.34833,-9.45162 0,0 5.27637,4.83446 5.45031,9.85728 0,0 12.58164,-21.47274 25.33747,-27.37456 0,0 2.40054,0.0416 2.72852,11.76207 0,0 9.51135,-22.55327 17.2191,-30.18937 l 0.063,4.90978 c 0,0 0.92138,-10.59251 14.65595,-24.48843 0,0 1.35298,-1.90916 2.41897,0.84336 0,0 5.4937,6.39301 5.7397,7.01456 0,0 -1.39411,-11.27638 -0.57412,-13.31857 0,0 4.46595,-15.59531 4.89789,-16.14423 0,0 5.38188,-16.86166 1.72909,-32.24403 0,0 2.4933,-3.20225 3.42098,1.82056 0,0 -0.81174,-18.08193 -8.11733,-32.52256 0,0 -17.04651,-32.90006 -24.00422,-42.69455 0,0 -20.87331,-44.22067 -46.61679,-48.49007 0,0 -8.5814,-1.38144 -11.95896,-0.15502 -0.8444,-0.32125 -2.01388,-0.47589 -3.29334,-0.5271 z m -68.25372,223.81011 -3.11143,0.5674 c 3.31095,-6.09728 0.38395,-11.13678 0.38395,-11.13678 -2.0812,-3.61316 -9.80244,-7.00735 -11.15797,-7.58197 -0.008,-0.003 -0.006,-0.0123 0.005,-0.0258 l -5.1e-4,-5.1e-4 c 0.0807,-0.10275 0.66174,-0.47272 1.22266,-0.81701 -0.10292,0.0534 -0.76284,0.39306 -0.81494,0.42013 -1.72491,-0.14301 -3.55275,1.79369 -3.55275,1.79369 0,0 -7.03738,1.47504 -9.48366,5.04517 -2.44629,3.57013 -1.61393,3.33413 -1.73684,3.60908 -0.86029,1.92466 1.15755,4.76302 1.15755,4.76302 -0.42087,0.59739 1.54099,4.51032 1.54099,4.51032 4.41352,5.92135 11.47217,5.03328 11.47217,5.03328 2.65179,-0.33355 10.97615,-4.82754 11.60962,-5.53971 0.51728,-0.0206 1.41896,-0.28376 2.466,-0.64027 z m -11.26029,-19.7156 c -0.11393,0.007 -0.21793,0.0221 -0.29611,0.0579 0,0 -0.53996,0.31797 -1.09967,0.66146 0.1765,-0.0916 1.08207,-0.55677 1.39578,-0.71934 z m 56.89523,-136.4542 c 3.08436,-0.093 6.48096,0.20585 10.2154,1.01131 0,0 8.23503,2.32741 15.83004,10.87634 7.59503,-8.27604 15.83004,-10.60297 15.83004,-10.60297 29.8755,-6.44361 38.11086,19.50992 38.11086,19.50992 6.31979,17.00404 -1.53221,23.71535 -1.53221,23.71535 9.19246,-0.17899 11.49077,19.86803 11.49077,19.86803 3.4472,21.47877 -18.38544,31.50247 -18.38544,31.50247 3.37996,34.46131 -27.95416,48.56213 -40.48073,52.79161 -5.01908,1.84492 -8.37979,0.36301 -9.87227,0.0388 -6.54575,-1.42192 -17.4481,-6.20323 -25.53257,-14.68365 -3.36523,-4.95627 -2.42882,-9.24117 1.97493,-18.37428 0.10515,-0.3659 2.99923,-5.15189 3.18152,-5.39585 1.39165,-1.86242 1.48518,-0.6072 1.48518,-0.6072 -0.30959,6.19428 0.60993,12.6155 1.05424,18.83968 0.22017,-0.44908 0.92481,-2.59239 1.39847,-2.91941 2.68147,-1.8513 8.46406,0.81435 8.25583,2.30632 -0.0253,0.18103 0.23202,5.79397 0.23202,5.79397 0.004,0.19822 0.40381,-0.84568 0.84956,-2.03141 0.10734,-2.0131 0.60378,-4.13101 1.75235,-6.22132 0,0 1.01988,0.88051 1.911,1.64693 1.27879,-0.43372 2.39972,-0.40145 3.98166,-0.24702 1.79733,2.81636 0.47274,5.99276 1.048,9.26197 l 0.85576,-8.38192 c 0,0 3.48689,0.11581 5.10874,0.85163 0.0968,1.92076 0.78369,6.14018 0.90123,6.85695 0.19745,-2.9459 -0.10244,-5.54625 0.14315,-8.39277 2.15645,-0.39861 4.11086,-0.33022 4.11086,-0.33022 1.5095,-1.09641 2.70888,-1.99574 2.70888,-1.99574 2.60289,4.48233 0.96374,6.76873 2.12493,10.75077 0.0286,-0.0112 0.056,-0.0239 0.0847,-0.0351 0.0213,-2.09322 -0.42256,-6.90404 1.15652,-8.09253 1.23203,1.6e-4 4.53399,-3.02502 7.19387,-0.87747 0.43382,0.35025 1.4081,3.44263 1.72238,4.30671 0.0596,-0.0337 0.11857,-0.0671 0.17777,-0.10076 0.19272,-1.2016 2.38962,-15.11074 1.81539,-22.55987 0,0 0.27014,-1.60033 1.46038,0.69815 0,0 3.80329,7.50609 2.53318,16.33751 0.50842,-1.73601 1.24997,-3.10751 1.76888,-4.79093 0.15496,-1.21801 -0.92697,-3.51576 -1.25729,-4.31136 0.16885,-3.00448 3.43432,-6.44365 4.80281,-7.70754 0.40723,-0.37609 1.68892,1.09914 1.88154,0.62425 0.64532,-1.5911 1.85972,-3.83286 2.08566,-5.3883 -0.0836,0.12117 -2.89681,-2.64602 -3.91242,-2.76056 h -5.2e-4 c -0.14475,-0.0161 -0.25277,0.0216 -0.31109,0.12971 -0.17204,0.31865 0.4327,0.83623 0.62167,3.11712 -1.31088,4.40829 -4.48164,4.07418 -6.3314,5.50923 -0.76394,-1.57672 -0.80657,-1.74664 -1.83296,-3.49436 0.12225,0.45861 -0.72311,-0.39039 -1.82005,0.2775 0,0 -1.72495,11.12362 -2.33474,14.34848 -1.25553,0.15807 -8.42395,1.50296 -9.13639,0.90382 0,0 -1.11795,-0.68174 -0.72606,-7.76852 0,0 -1.60278,5.03154 -1.34979,6.90707 0,0 -7.85229,1.3304 -9.90327,-2.01641 0,0 -0.59047,-4.1694 -0.0816,-5.73092 l -1.56424,0.11989 c 0.003,0.14191 0.0506,-0.41879 0.0506,1.0387 0.51748,1.3579 -0.12816,4.14445 -0.12816,4.14445 -2.08562,2.91033 -8.77943,1.75338 -8.77943,1.75338 0.25056,-1.58823 -2.55664,-7.02424 -2.63744,-7.31222 -0.008,-10e-4 -0.0147,-1.91161 -0.0227,-1.91261 0.37889,6.06432 -0.74207,8.57071 -0.74207,8.57071 -0.72449,0.521 -8.01416,-0.64804 -9.29091,-0.78549 0.63902,-1.04509 1.56272,-6.47179 0.27664,-9.37241 -0.32685,-0.0619 -0.60785,-0.11943 -0.8508,-0.17269 -2.63502,-0.57772 -0.7952,-0.65457 -4.44982,-0.37987 -0.47546,0.72824 -0.75362,1.20691 -1.32912,2.2226 -1.88102,-1.2479 -5.10534,-0.95749 -6.43836,-4.79092 0.19215,-1.98339 0.80697,-2.43386 0.632,-2.71095 -0.4754,-0.75286 -4.19876,2.40866 -4.29586,2.28824 0.22976,1.35257 1.43506,3.42712 1.26349,4.94026 -0.16576,1.46209 2.18461,-0.11859 2.5988,0.20826 0.76557,0.60412 1.92592,1.49384 2.87115,2.58692 -3.78955,1.27119 -7.70303,2.68552 -10.89908,3.8623 -2.42223,-6.19469 -3.60487,-13.37743 -2.79311,-21.65398 0,0 -21.83207,-10.02371 -18.38493,-31.50247 0,0 2.2978,-20.04702 11.49026,-19.86804 0,0 -7.85149,-6.71132 -1.53169,-23.71534 0,0 6.30502,-19.87084 27.89545,-20.52175 z m -15.7086,33.55248 c -2.69032,0.15533 -4.20853,2.45153 -4.20853,2.45153 0,0 -8.86368,10.64392 5.7888,17.06562 -0.47596,1.40464 1.86242,5.85649 1.86242,5.85649 4.34885,5.10735 24.19896,6.92036 30.51906,4.0504 -4.67732,-3.46693 -2.5678,-7.77682 1.33377,-7.88324 4.7644,-9.07516 -3.71088,-17.40566 -3.71088,-17.40566 -3.80364,-3.3014 1.70687,9.22786 1.70687,9.22786 1.03532,4.38047 -1.8735,8.88936 -10.97142,5.56142 0.59804,1.83513 0.59425,3.83576 -0.0103,5.58932 -1.31454,3.77591 -5.01012,5.39687 -8.25427,3.62046 -3.2442,-1.77646 -4.80849,-6.27768 -3.49385,-10.05365 0.50161,-1.42391 1.37346,-2.60041 2.49339,-3.36466 -6.77098,-2.02848 -12.69122,0.21343 -12.69122,0.21343 -6.07699,-6.81287 -3.40865,-10.76648 2.70423,-14.20689 -1.14441,-0.58823 -2.17125,-0.77423 -3.06803,-0.72243 z m 84.06774,0.34726 c -0.73307,0.0327 -1.54428,0.20689 -2.43086,0.58705 6.07201,3.33053 8.63243,7.03344 2.2195,13.10927 0,0 -6.30235,-2.35083 -13.52217,-0.37258 1.5504,0.68931 2.74558,2.05839 3.32486,3.80855 1.19961,3.66758 -0.57411,7.96013 -3.96151,9.58753 -0.1974,0.0891 -0.39779,0.16796 -0.60048,0.23616 4.98908,-0.6835 9.40014,-1.92922 11.25306,-3.76721 0,0 2.53522,-4.01703 2.10426,-5.31906 15.09417,-5.47199 6.4978,-15.48898 6.4978,-15.48898 0,0 -1.70789,-2.52226 -4.88446,-2.38073 z m -30.41985,2.42621 c -0.21536,-0.0305 -0.55586,0.1115 -1.05317,0.47646 0,0 -8.9001,7.39935 -4.40283,15.86001 3.95244,0.20914 5.93247,4.22323 1.06195,7.26984 3.29059,1.46857 10.3516,1.84696 17.0186,1.24799 -2.25406,-0.29612 -4.10887,-1.91329 -4.88032,-4.25504 -0.68087,-2.10424 -0.40201,-4.52241 0.75189,-6.52002 -9.89838,3.21032 -12.8596,-1.1021 -11.61944,-5.18676 0,0 4.63084,-8.67872 3.12332,-8.89248 z m -7.00681,33.9416 c -1.02087,0.0293 -1.44384,0.49041 -1.44384,0.49041 -1.50994,0.66184 -2.55175,3.2362 -2.98896,4.51858 -0.19962,-1.72564 -0.6794,-3.82198 -1.87999,-4.32531 0,0 -3.71338,-1.8956 -10.46706,3.95841 0,0 -2.44969,2.83262 -6.50193,5.40587 -7.13781,5.0382 1.21535,17.93083 6.24716,17.40669 0,0 4.9391,0.1007 5.57227,-0.8661 0,0 0.84403,-2.0656 -6.16293,-1.2795 -4.03555,-2.74836 -9.14847,-8.19519 -5.06532,-13.15269 10.00651,-3.95048 13.42142,6.42653 25.19743,0.84956 5.52804,-2.21547 11.32954,-1.22318 11.32954,-1.22318 1.95112,1.79044 0.96273,6.13038 0.96273,6.13038 -2.84538,7.32351 -6.45439,8.01139 -6.45439,8.01139 -6.74749,-0.76949 -6.1097,0.5948 -6.1097,0.5948 0.60972,0.96608 5.36556,0.85318 5.36556,0.85318 2.90999,0.71474 8.81158,-4.55503 8.86148,-11.67681 -0.36583,-5.36247 -2.84531,-5.76141 -2.84531,-5.76141 -3.90215,-2.56561 -7.39696,-5.65857 -7.39696,-5.65857 -3.65829,-3.28655 -3.85542,-2.99864 -6.21978,-4.2757 z m -134.78557,0.67076 c -14.3774,8.27978 9.30641,23.27713 9.30641,23.27713 9.95775,5.80841 6.33501,19.81946 6.33501,19.81946 -11.02709,25.42171 17.99322,23.98613 17.99322,23.98613 -12.22864,-4.81837 -8.56278,-16.15095 -8.56278,-16.15095 8.18787,-9.00564 8.65607,-11.08034 10.23813,-20.40289 -0.29452,-11.97405 -16.84548,-14.87247 -16.84548,-14.87247 -18.52718,-3.99467 -18.46451,-15.65641 -18.46451,-15.65641 z m 127.2254,1.2797 c 0,0 2.71016,1.67232 0.90993,7.51614 0,0 2.15805,0.27322 2.04794,-2.31769 0.76567,1.07713 2.59106,1.82108 2.59106,1.82108 -1.22236,-4.01727 0.68462,-6.77268 1.35529,-7.1783 6.46303,2.20121 10.10022,8.33942 10.10022,8.33942 -4.67633,-0.62028 -10.81929,2.51344 -14.04203,3.03806 -3.34548,-0.55921 -8.47117,-3.56797 -13.32736,-2.93626 0,0 2.42637,-6.32962 10.36495,-8.28245 z m -6.6586,12.94165 c -0.88737,-0.0501 -1.82028,0.1745 -2.87786,0.86351 0.25416,1.77904 0.87401,3.85891 2.65772,4.67827 3.30758,0.18427 6.42465,-2.9622 7.44296,2.87063 1.4038,-0.22562 2.62113,-0.6788 2.76417,-2.44533 0.97417,0.52907 0.70558,1.92018 2.65824,1.59473 0.92839,-1.61513 0.52061,-5.1392 4.46536,-2.44533 0.6379,0.63794 1.59461,0.31878 2.33887,-1.38234 0.62426,-1.42684 0.46554,-2.94028 -0.53123,-3.18947 -0.55664,-0.10858 -2.83597,-0.0101 -3.50883,0.14935 -8.57388,4.8994 -11.56411,-0.47678 -15.4094,-0.69402 z m -27.39884,32.34325 c 1.39078,0.0303 2.927,0.30518 4.55166,0.98495 0,0 0.27112,0.28818 1.69413,1.99671 -1.7877,3.78371 -1.85136,6.28935 -2.03077,7.74422 l -4.28944,3.33941 c 0,0 2.797,3.83846 2.04432,5.55366 0,0 -2.44348,2.59054 -5.93503,4.38165 0,0 -1.33674,-6.62735 -2.2872,-6.5257 0,0 -7.88309,5.41445 -14.94999,-1.28003 0,0 -2.52308,-1.81119 -1.29657,-4.62814 0.64245,-1.47556 2.31388,-3.22687 5.9154,-5.1387 l 1.43041,-0.52917 -1.50844,-1.87844 0.0749,-0.15296 8.22379,-3.54139 c 0,0 1.95884,0.96265 1.3286,1.69551 0,0 2.86184,-2.11241 7.0342,-2.02158 z"
         sodipodi:nodetypes="ccccccccccccccccccccccccccccccccccccccccccccccccccccccssccccscsccsscccccccccsccsccsscccccccccccccccscccccccsscssccccccccccccccccccccscccscssccccccccscccccccccsccccssscccccccccsscccccccscccccccccccccccccccccccccccccccccccccsccccccsccssccccccccsccccccss" />
    </g>
    <path
       style="fill:#000000;fill-opacity:1;stroke:#000000;stroke-width:8.60835;stroke-dasharray:none;stroke-opacity:0"
       d="m 548.04851,-347.77786 c -15.34414,-0.58596 -34.64197,2.3791 -34.64197,2.3791 -102.9133,16.28484 -186.3573,184.95655 -186.3573,184.95655 C 299.23484,-123.08282 231.089,2.40637 231.089,2.40637 c -29.20516,55.08111 -32.45006,124.05336 -32.45006,124.05336 3.70861,-19.15856 13.67593,-6.94617 13.67593,-6.94617 -14.60258,58.67347 6.91193,122.99097 6.91193,122.99097 1.727,2.0937 19.58006,61.5773 19.58006,61.5773 3.27806,7.7896 -2.29506,50.8033 -2.29506,50.8033 0.98343,-2.3709 22.94728,-26.7559 22.94728,-26.7559 4.26148,-10.499 9.6683,-3.2168 9.6683,-3.2168 25.47538,24.5927 39.63384,46.2321 47.80341,62.6219 l 53.68515,74.5413 c 15.01115,27.6052 26.19057,52.6678 26.19057,52.6678 1.31122,-44.7055 10.90556,-44.8643 10.90556,-44.8643 50.99313,22.5113 101.29228,104.4154 101.29228,104.4154 0.69519,-19.1587 21.78635,-37.5989 21.78635,-37.5989 23.87393,19.8771 27.47339,36.2743 27.47339,36.2743 0,0 9.4996,-16.1744 33.37394,-36.0515 0,0 21.09275,18.4401 21.78835,37.5987 0,0 50.29673,-81.9036 101.29017,-104.4151 0,0 9.5964,0.1586 10.9077,44.8641 0,0 38.0228,-86.0253 68.83569,-115.1519 l 0.2519,18.7276 c 0,0 3.6835,-40.4033 58.5891,-93.4067 0,0 5.4088,-7.2821 9.6703,3.2167 0,0 21.9619,24.3852 22.9453,26.7558 0,0 -5.5732,-43.0116 -2.2951,-50.8012 0,0 17.8531,-59.4855 19.58,-61.5792 0,0 21.515,-64.3157 6.9123,-122.98894 0,0 9.9673,-12.21446 13.6757,6.94419 0,0 -3.2449,-68.97023 -32.4501,-124.05142 0,0 -68.1459,-125.49123 -95.9602,-162.85058 0,0 -83.44399,-168.67168 -186.35737,-184.95652 0,0 -34.30537,-5.2693 -47.8078,-0.59134 -3.37562,-1.22531 -8.05047,-1.81519 -13.16546,-2.01048 z M 391.38529,364.88273 c -9.63351,-23.5881 -14.82606,-58.491 -11.58916,-89.9807 0,0 -87.27694,-38.2336 -73.49627,-120.16048 0,0 9.18579,-76.4657 45.93371,-75.783 0,0 -31.38748,-25.59907 -6.12318,-90.45789 0,0 25.20514,-75.79365 111.51625,-78.27644 l 4.1e-4,-3.3e-4 c 12.32991,-0.35475 25.90831,0.78513 40.83751,3.85741 0,0 32.92058,8.87744 63.28269,41.48581 30.3625,-31.56748 63.28308,-40.4431 63.28308,-40.4431 119.43162,-24.57796 152.35331,74.41705 152.35331,74.41705 25.2644,64.85888 -6.12509,90.45787 -6.12509,90.45787 36.74829,-0.68272 45.93609,75.78301 45.93609,75.78301 13.7806,81.92699 -73.49859,120.16039 -73.49859,120.16039 13.512,131.4465 -111.7506,185.2315 -161.82746,201.3641 -20.06457,7.0371 -33.49947,1.3844 -39.46594,0.1476 -26.74663,-5.5439 -78.06717,-27.5561 -114.84148,-63.332 m 12.24838,-26.8555 c -0.20388,-1.217 2.93427,-32.9905 18.28441,-51.0065 1.19569,-0.2415 2.35541,-0.4678 3.2517,-0.5796 0,0 -1.24207,-0.026 -2.98305,0.2346 0.13591,-0.1549 0.71237,-0.9087 0.71237,-0.9087 4.83875,-7.6238 5.9373,-2.316 5.9373,-2.316 -2.43815,25.8081 4.21432,71.8604 4.21432,71.8604 0.88029,-1.713 5.56832,-14.1155 7.462,-15.3627 10.71968,-7.0615 33.83606,3.1063 33.00373,8.7969 -0.0999,0.6907 0.92747,22.1 0.92747,22.1 0,0.7562 1.61424,-3.2255 3.39639,-7.7482 0.42895,-7.6788 2.41377,-15.7572 7.00506,-23.7303 0,0 4.0772,3.3586 7.63951,6.2819 5.11218,-1.6541 9.59314,-1.5311 15.91741,-0.9421 7.18496,10.7426 1.88967,22.8582 4.18952,35.3281 l 3.42119,-31.9713 c 0,0 13.93898,0.4417 20.42277,3.2483 0.38776,7.3264 3.13293,23.4206 3.60266,26.1547 0.78954,-11.2366 -0.40936,-21.1552 0.57247,-32.0127 8.62051,-1.5204 16.43351,-1.2596 16.43351,-1.2596 6.03443,-4.182 10.82921,-7.6124 10.82921,-7.6124 10.40546,17.0969 3.85293,25.8181 8.49458,41.0069 0.11596,-0.043 0.22388,-0.091 0.33982,-0.1339 0.084,-7.9842 -1.68901,-26.3343 4.62366,-30.8675 4.9251,6e-4 18.12491,-11.5384 28.75824,-3.347 1.73459,1.336 5.62909,13.1313 6.88555,16.4273 0.23987,-0.1285 0.47411,-0.2559 0.71078,-0.3844 0.77035,-4.5833 9.55279,-57.6372 7.2573,-86.0505 0,0 1.07974,-6.1042 5.83821,2.6629 0,0 15.20384,28.6307 10.12642,62.3165 2.03281,-6.6218 4.99702,-11.8531 7.07143,-18.2741 0.61956,-4.6459 -3.70583,-13.4103 -5.02627,-16.445 0.67526,-11.46 13.72913,-24.578 19.19973,-29.399 1.6284,-1.4344 6.7522,4.1925 7.5222,2.3812 2.5796,-6.069 7.4343,-14.6199 8.3374,-20.5528 -0.3358,0.4622 -11.5804,-10.0928 -15.6403,-10.5296 v 0 c -0.579,-0.062 -1.0107,0.083 -1.2438,0.4947 -0.6875,1.2154 1.7298,3.1897 2.4855,11.8898 -5.2406,16.8146 -17.91639,15.5403 -25.31078,21.0139 -3.05423,-6.0141 -3.22454,-6.6623 -7.32765,-13.3286 0.48887,1.7493 -2.89074,-1.4891 -7.27578,1.0585 0,0 -6.8959,42.429 -9.33365,54.7296 -5.01906,0.6029 -33.67575,5.7327 -36.52406,3.4476 0,0 -4.46897,-2.6006 -2.90229,-29.6319 0,0 -6.40741,19.1921 -5.39603,26.3461 0,0 -31.39068,5.0744 -39.58984,-7.6914 0,0 -2.36062,-15.9032 -0.32781,-21.8595 l -6.25312,0.4573 c 0,0.5412 0.20388,-1.5974 0.20388,3.9619 2.06879,5.1795 -0.51249,15.8083 -0.51249,15.8083 -8.33749,11.1008 -40.25906,6.6879 -40.25906,6.6879 1.00181,-6.058 -5.05861,-26.7927 -5.38163,-27.891 -0.04,0 -0.06,-0.01 -0.0919,-0.012 1.51471,23.1313 -2.96624,25.4075 -2.96624,25.4075 -2.8963,1.9873 -32.03792,-2.4719 -37.1417,-2.9961 2.55449,-3.9864 -0.72159,-21.5637 -5.86295,-32.6277 -3.57908,-1.0552 -7.14777,-2.0167 -10.73407,-3.2287 -0.72158,-0.2437 -2.41217,-1.4245 -3.48715,-2.0007 -1.90088,2.7778 -3.01261,4.6036 -5.31326,8.4778 -7.51996,-4.7599 -20.40957,-3.6523 -25.73842,-18.274 0.76835,-7.5655 3.2261,-9.2836 2.5265,-10.3405 -1.90047,-2.8717 -16.7853,9.1873 -17.17347,8.728 0.91866,5.1591 5.73702,13.0722 5.05102,18.8438 -0.66241,5.5769 7.24693,-6.1262 8.90275,-4.8795 3.0626,2.306 19.59885,22.2518 23.37863,26.4257 -8.44263,7.9798 -3.388,8.5992 -10.94595,23.5261 M 394.83001,38.20385 c -10.75485,0.59248 -16.82407,9.35092 -16.82407,9.35092 0,0 -35.4339,40.59925 23.14156,65.0937 -1.90288,5.35773 7.44521,22.3385 7.44521,22.3385 17.38495,19.48106 96.73857,26.39645 122.00405,15.44952 -18.69816,-13.22398 -10.26513,-29.66326 5.33207,-30.06919 19.04637,-34.61558 -14.83485,-66.39067 -14.83485,-66.39067 -15.20544,-12.59263 6.82356,35.19799 6.82356,35.19799 4.13876,16.7085 -7.48958,33.90685 -43.85973,21.21302 2.39058,6.99977 2.3758,14.63077 -0.04,21.31944 -5.2553,14.40252 -20.02859,20.58538 -32.99775,13.80955 -12.96915,-6.77598 -19.22267,-23.94502 -13.96697,-38.34781 2.00522,-5.43125 5.49037,-9.91876 9.96734,-12.83385 -27.06765,-7.73726 -50.73491,0.81405 -50.73491,0.81405 -24.29366,-25.98644 -13.62636,-41.06674 10.81084,-54.18955 -4.5753,-2.2437 -8.68008,-2.9532 -12.26518,-2.75562 z m 336.07274,1.32457 c -2.9303,0.12472 -6.1736,0.78913 -9.7176,2.23919 24.2738,12.70374 34.5093,26.82777 8.8729,50.00295 0,0 -25.1948,-8.96685 -54.05704,-1.42117 6.198,2.62927 10.97592,7.85135 13.29178,14.52702 4.79566,13.98934 -2.29502,30.36247 -15.83704,36.56988 -0.78912,0.33985 -1.58992,0.64065 -2.40017,0.90079 19.94463,-2.60708 37.57817,-7.35861 44.98537,-14.36933 0,0 10.1349,-15.32219 8.4123,-20.28855 60.34119,-20.87196 25.9759,-59.07989 25.9759,-59.07989 0,0 -6.8276,-9.62074 -19.5264,-9.08089 z m -121.60758,9.25433 c -0.86109,-0.11635 -2.22228,0.4253 -4.21032,1.81738 0,0 -35.57943,28.22344 -17.60082,60.49511 15.8003,0.79772 23.71562,16.10873 4.2451,27.72947 13.15464,5.60159 41.38199,7.0449 68.0343,4.76024 -9.0107,-1.1295 -16.42554,-7.29791 -19.50973,-16.23009 -2.72197,-8.02624 -1.60705,-17.24986 3.00584,-24.86938 -39.57026,12.24517 -51.40809,-4.2038 -46.45022,-19.78399 0,0 18.51228,-33.10339 12.48585,-33.91874 z m -28.01068,129.46408 c -4.08121,0.1117 -5.7722,1.8705 -5.7722,1.8705 -6.03604,2.5245 -10.20079,12.344 -11.94855,17.2354 -0.79834,-6.5822 -2.71601,-14.5783 -7.51557,-16.4982 0,0 -14.84486,-7.2304 -41.84373,15.0987 0,0 -9.79302,10.8045 -25.99228,20.6198 -28.53438,19.2173 4.85834,68.3938 24.97368,66.3945 0,0 19.74476,0.3841 22.27607,-3.3036 0,0 3.374,-7.8787 -24.63708,-4.8803 -16.13289,-10.4833 -36.57244,-31.2591 -20.24927,-50.1687 40.00243,-15.0683 53.65398,24.513 100.73022,3.2406 22.09897,-8.4505 45.29128,-4.6657 45.29128,-4.6657 7.80022,6.8294 3.84895,23.3834 3.84895,23.3834 -11.37491,27.9341 -25.8024,30.5579 -25.8024,30.5579 -26.97409,-2.935 -24.42439,2.2686 -24.42439,2.2686 2.43737,3.6851 21.44936,3.2545 21.44936,3.2545 11.63312,2.7262 35.22562,-17.3743 35.4251,-44.5392 -1.46234,-20.4542 -11.3745,-21.9758 -11.3745,-21.9758 -15.5996,-9.786 -29.57055,-21.5835 -29.57055,-21.5835 -14.6242,-12.536 -15.41252,-11.4378 -24.86414,-16.3089 z m -32.96057,8.3594 c 0,0 3.16892,7.8503 6.37504,27.7493 0,0 8.62731,1.0421 8.18718,-8.8405 3.06059,4.1085 10.35789,6.9461 10.35789,6.9461 -4.88632,-15.3231 2.91948,-23.6257 5.60069,-25.1729 25.83677,8.3962 38.18709,27.9463 38.18709,27.9463 -18.69457,-2.3658 -43.25171,9.5871 -56.13531,11.5882 -13.37411,-2.1331 -33.86443,-13.6093 -53.27779,-11.1998 0,0 8.96954,-21.5679 40.70521,-29.0167 z m -23.88113,48.4438 c -3.5475,-0.1911 -7.27689,0.6655 -11.50481,3.2938 1.0162,6.7857 3.49394,14.7192 10.62493,17.8443 13.22221,0.7029 25.68326,-11.2987 29.75407,10.9495 5.61188,-0.8605 10.47821,-2.5892 11.05028,-9.3272 3.89451,2.0179 2.82074,7.3241 10.62653,6.0828 3.71141,-6.1607 2.08119,-19.6026 17.85108,-9.3272 2.5501,2.4333 6.37466,1.2158 9.35008,-5.2727 2.49533,-5.4426 1.86091,-11.2152 -2.12393,-12.1657 -2.22511,-0.4142 -11.33692,-0.039 -14.02695,0.5696 -34.27538,18.688 -46.22913,-1.8185 -61.60128,-2.6472 z"
       id="path1-2-1"
       sodipodi:nodetypes="cccccccccccccccccccccccccccccccccccccccccccccccccccccccccccccsscccccccccccccccscccccccsscccccccccccccccccccccccscccscssccscccccccccsccccssscccccccccsccccccccccccccccccccccccccccccccccccccsccccccsccs"
       inkscape:export-filename="Logo_macaco_semcharuto_preto.png"
       inkscape:export-xdpi="23.089359"
       inkscape:export-ydpi="23.089359" />
  </g>
</svg>
